<?xml version="1.0" standalone="no"?>
<!DOCTYPE svg PUBLIC "-//W3C//DTD SVG 20010904//EN"
 "http://www.w3.org/TR/2001/REC-SVG-20010904/DTD/svg10.dtd">
<svg version="1.0" xmlns="http://www.w3.org/2000/svg"
 width="311.000000pt" height="311.000000pt" viewBox="0 0 311.000000 311.000000"
 preserveAspectRatio="xMidYMid meet">
<metadata>
Created by potrace 1.14, written by Peter Selinger 2001-2017
</metadata>
<g transform="translate(0.000000,311.000000) scale(0.100000,-0.100000)"
fill="#000000" stroke="none">
<path d="M17 2832 c-21 -23 -22 -52 -3 -77 13 -18 29 -19 190 -20 96 -1 178
-4 182 -8 5 -5 93 -335 109 -407 2 -8 26 -105 55 -215 28 -110 53 -207 55
-215 1 -8 39 -157 84 -331 45 -174 81 -320 81 -324 0 -4 20 19 45 50 35 46 43
63 39 84 -4 14 -22 84 -40 155 -19 71 -33 130 -31 132 5 5 74 6 314 4 l231 -1
7 -52 c4 -29 7 -54 6 -57 -2 -6 112 -20 118 -14 2 2 -1 26 -6 54 -11 56 -3 67
47 64 14 -1 160 -5 325 -9 165 -4 315 -8 334 -9 l35 -1 -3 -57 -2 -57 30 9
c37 10 35 10 60 10 15 0 21 11 27 47 l9 47 255 -2 c140 -2 257 -5 260 -7 4 -2
-6 -55 -21 -117 -16 -62 -29 -118 -29 -125 0 -6 20 -33 44 -58 37 -41 45 -45
49 -29 8 25 128 505 132 524 2 8 8 35 15 60 7 25 13 52 15 60 2 8 11 44 20 80
9 36 19 76 21 90 3 14 8 34 11 45 4 11 8 26 9 34 2 8 5 25 8 37 4 14 -1 31
-13 45 l-19 24 -1227 0 -1226 0 -14 50 c-18 65 -93 359 -100 393 -4 15 -8 34
-10 42 -2 8 -4 18 -4 23 -1 4 -10 16 -21 27 -19 19 -33 20 -228 20 -190 0
-210 -2 -225 -18z m1239 -672 c11 -70 54 -369 54 -377 0 -13 -550 -8 -561 5
-6 7 -99 369 -99 385 0 4 136 6 302 5 258 -3 301 -5 304 -18z m1000 -7 c-5
-31 -16 -129 -21 -183 -8 -87 -16 -167 -20 -185 -2 -11 -4 -23 -4 -27 -1 -3
-74 -5 -163 -3 -445 11 -612 16 -617 21 -5 5 -7 13 -17 89 -3 28 -7 52 -9 55
-2 3 -6 34 -10 70 -3 35 -8 67 -10 70 -1 3 -6 31 -9 63 l-7 57 446 0 445 0 -4
-27z m666 -191 l-55 -219 -260 3 c-254 3 -293 6 -284 21 3 5 8 39 12 76 3 37
8 76 10 85 1 9 6 49 9 87 4 39 8 79 11 90 2 11 4 32 4 48 l1 27 304 0 304 0
-56 -218z"/>
<path d="M1225 1475 c-138 -27 -230 -79 -328 -186 -106 -113 -160 -253 -160
-409 0 -105 15 -174 58 -265 47 -98 117 -180 205 -240 182 -124 400 -136 603
-33 137 68 263 235 301 398 24 99 15 245 -19 340 -103 281 -383 449 -660 395z
m222 -151 c206 -62 339 -254 328 -473 -5 -112 -41 -200 -115 -284 -108 -123
-266 -175 -428 -141 -234 49 -396 294 -352 533 21 117 104 244 202 308 99 66
255 90 365 57z"/>
<path d="M2215 1470 c-39 -10 -88 -25 -110 -35 -49 -21 -152 -94 -182 -128
l-22 -26 34 -78 c19 -43 35 -73 35 -66 0 20 114 128 156 148 96 46 134 54 233
52 90 -2 103 -5 173 -39 118 -59 202 -154 244 -278 22 -65 24 -204 5 -265 -68
-211 -245 -346 -446 -339 -124 4 -221 47 -311 139 l-60 61 -33 -70 -32 -71 56
-53 c188 -176 493 -201 708 -58 92 61 163 142 211 241 147 301 26 668 -269
818 -118 59 -267 77 -390 47z"/>
</g>
</svg>
