<svg width="279" height="69" viewBox="0 0 279 69" fill="none" xmlns="http://www.w3.org/2000/svg">
<path d="M79.942 13.3797C79.8216 13.219 79.6663 13.0891 79.4886 13C79.3109 12.9109 79.1155 12.8652 78.9179 12.8663H22.5485L19.5285 0.999588C19.4566 0.714858 19.2947 0.462526 19.0681 0.281959C18.8415 0.101395 18.563 0.00275323 18.276 0.00142602H9.61682C9.44125 -0.00690517 9.26585 0.0213334 9.10123 0.0844343C8.9366 0.147535 8.78618 0.244188 8.65907 0.368547C8.53194 0.492907 8.43076 0.642392 8.36161 0.807962C8.29247 0.973531 8.25684 1.15175 8.25684 1.33183C8.25684 1.51192 8.29247 1.69014 8.36161 1.85571C8.43076 2.02127 8.53194 2.17076 8.65907 2.29512C8.78618 2.41948 8.9366 2.51613 9.10123 2.57922C9.26585 2.64234 9.44125 2.67058 9.61682 2.66225H17.26L26.192 37.5922C26.7663 36.6442 27.4391 35.7625 28.1987 34.9627L26.2503 27.5023L39.0539 27.6419L39.4436 30.2971C40.344 30.3213 41.2404 30.4301 42.1214 30.6223L41.6981 27.6933L59.1641 28.1125L58.8717 30.7562C59.745 30.5286 60.6367 30.3815 61.5354 30.3171L61.7693 28.1667L74.0162 28.2864L72.566 34.1843C73.3482 34.8963 74.0562 35.6895 74.6788 36.5514L80.1647 14.529C80.2168 14.3328 80.2239 14.1269 80.1854 13.9275C80.1466 13.7281 80.0633 13.5405 79.942 13.3797ZM25.588 24.8128L23.2248 15.5271H37.3004L38.6921 24.9727L25.588 24.8128ZM59.4898 25.4516L41.3142 25.021L39.9363 15.5214H60.5919L59.4898 25.4516ZM74.6814 25.6314L62.1004 25.5058L63.2138 15.5243H77.2421L74.6814 25.6314Z" fill="#2F54EB"/>
<path d="M74.7951 39.2829C74.695 39.0804 74.5865 38.8808 74.4778 38.6841C74.3693 38.4873 74.2496 38.2877 74.1271 38.0965C73.5764 37.2155 72.9324 36.3998 72.2066 35.664C72.0341 35.487 71.8476 35.3245 71.6499 35.1563C71.4524 34.9881 71.288 34.8282 71.0932 34.6743C68.703 32.7179 65.741 31.6402 62.6819 31.6143H62.5539C62.3786 31.6143 62.203 31.6143 62.0277 31.6143C61.8069 31.6143 61.5871 31.6285 61.368 31.6571C60.4804 31.7342 59.6021 31.9002 58.7461 32.1533C58.5375 32.2159 58.3286 32.2816 58.1254 32.3529C57.9223 32.4241 57.7108 32.5011 57.5076 32.5839C55.4838 33.4047 53.6798 34.7067 52.2441 36.3827C52.8598 37.4817 53.3634 38.6429 53.7472 39.8476C54.9759 37.8969 56.788 36.406 58.9124 35.5978C61.0368 34.7897 63.3594 34.7076 65.5328 35.364C67.7065 36.0201 69.6144 37.3797 70.9716 39.2391C72.3288 41.0985 73.062 43.358 73.062 45.6797C73.062 48.0016 72.3288 50.2611 70.9716 52.1205C69.6144 53.9799 67.7065 55.3393 65.5328 55.9956C63.3594 56.652 61.0368 56.5699 58.9124 55.7618C56.788 54.9536 54.9759 53.4627 53.7472 51.512C53.363 52.7174 52.8593 53.8795 52.2441 54.9798C54.4504 57.5712 57.5069 59.2448 60.8356 59.6844C64.1644 60.1238 67.535 59.2991 70.3105 57.3657C73.0861 55.432 75.0744 52.524 75.8997 49.1906C76.7249 45.8574 76.33 42.3296 74.7896 39.2743L74.7951 39.2829Z" fill="#2F54EB"/>
<path d="M51.4961 39.8542C50.737 38.1577 49.6574 36.6323 48.3197 35.3655C46.982 34.0987 45.4128 33.1157 43.7026 32.4737C43.4882 32.388 43.2601 32.3138 43.0403 32.2398C42.8202 32.1656 42.5866 32.1085 42.3527 32.0485C41.4742 31.8185 40.5752 31.68 39.6695 31.6351C39.4468 31.6351 39.227 31.6094 39.007 31.6094C38.7929 31.6094 38.5785 31.6351 38.3642 31.6408C35.1264 31.794 32.0468 33.12 29.6743 35.3824C29.4935 35.5537 29.3181 35.7276 29.1428 35.9129C28.9675 36.0983 28.7893 36.3007 28.6223 36.5005C27.872 37.3924 27.2322 38.3761 26.7184 39.4293C26.6071 39.6546 26.4902 39.8799 26.3927 40.1137C26.2954 40.3476 26.2257 40.5671 26.1393 40.7981C25.5629 42.3623 25.266 44.0202 25.2627 45.6922C25.271 48.9016 26.3492 52.0117 28.3187 54.5074C30.288 57.003 33.0305 58.7344 36.0918 59.4148C39.153 60.0949 42.3492 59.6831 45.1507 58.2477C47.9521 56.8122 50.191 54.4389 51.4961 51.5214C52.3123 49.6903 52.7348 47.7007 52.7348 45.6879C52.7348 43.6748 52.3123 41.6853 51.4961 39.8542ZM38.9708 56.4465C36.1884 56.4427 33.5206 55.3084 31.5529 53.2925C29.5855 51.2766 28.4783 48.5431 28.4748 45.6922C28.4743 43.9486 28.8921 42.232 29.6911 40.6928C29.8758 40.3204 30.0861 39.9622 30.3201 39.6203C31.2813 38.1775 32.5716 36.9963 34.0792 36.1799C35.5867 35.3634 37.2658 34.9359 38.9708 34.9347C39.2927 34.9357 39.6141 34.9537 39.934 34.9889C40.4332 35.0353 40.928 35.12 41.4147 35.2428C43.915 35.8544 46.1094 37.3853 47.5808 39.5449C49.0524 41.7045 49.6988 44.3426 49.3971 46.9585C49.0957 49.5742 47.8674 51.9853 45.9455 53.7345C44.0235 55.4835 41.5415 56.4487 38.9708 56.4465Z" fill="#2F54EB"/>
<path d="M21.5746 49.4643C21.4157 48.8379 21.1869 48.232 20.8926 47.6591C20.5973 47.0905 20.2446 46.5553 19.8405 46.0621C19.4371 45.5763 18.9793 45.1407 18.4767 44.7644L17.8782 44.3138L18.3932 43.7664C19.0167 43.0965 19.5123 42.3128 19.8544 41.4562C20.2104 40.5591 20.3892 39.5984 20.3805 38.63C20.3906 37.5716 20.1888 36.5224 19.7876 35.547C19.4061 34.6176 18.8533 33.7723 18.1594 33.0575C17.4537 32.3483 16.6224 31.784 15.71 31.3948C14.7606 30.9847 13.7398 30.776 12.7095 30.7815H0.250996C0.181567 30.7763 0.111879 30.7879 0.0478074 30.8158C0.00807757 30.9 -0.00737335 30.9939 0.00327294 31.0867V59.5716C-0.000651255 59.6256 0.0059723 59.6798 0.0227567 59.7312C0.0914018 59.7733 0.171251 59.7923 0.250996 59.7854H13.9564C15.012 59.7909 16.0562 59.5632 17.0182 59.1179C17.9607 58.683 18.8116 58.064 19.5232 57.2956C20.2384 56.5129 20.809 55.6037 21.2072 54.6121C21.6182 53.603 21.8273 52.5198 21.8223 51.4264C21.8226 50.7641 21.7394 50.1047 21.5746 49.4643ZM4.4567 34.4149H11.6379C12.2277 34.4082 12.8133 34.5167 13.3636 34.7344C13.872 34.9442 14.3354 35.2544 14.7274 35.647C15.1101 36.044 15.4119 36.5153 15.6153 37.033C16.0494 38.1363 16.0494 39.3691 15.6153 40.4722C15.4048 40.9973 15.0939 41.474 14.701 41.8742C14.3081 42.2743 13.8411 42.5897 13.3274 42.8024C12.7785 43.0263 12.1925 43.1398 11.6017 43.136H4.4567V34.4149ZM16.9347 52.9123C16.7611 53.4291 16.5022 53.9113 16.1692 54.3383C15.838 54.7606 15.44 55.1231 14.9919 55.4105C14.5322 55.7019 14.0201 55.8958 13.486 55.981C13.2104 56.0374 12.9315 56.0754 12.651 56.0949C12.3727 56.1149 12.0943 56.1263 11.7882 56.1263H4.4567V46.5013H11.777C12.0784 46.5017 12.3795 46.5198 12.6789 46.5555C12.9572 46.5897 13.2355 46.6295 13.5139 46.6694C14.0417 46.7651 14.5482 46.9585 15.0086 47.2399C15.4533 47.5149 15.8487 47.8661 16.1776 48.2779C16.503 48.6944 16.7597 49.1626 16.9374 49.6641C17.1233 50.1699 17.2176 50.7063 17.2158 51.2468C17.2199 51.8144 17.1256 52.3783 16.9374 52.9123H16.9347Z" fill="#263238"/>
<path d="M95.6644 48.8513C95.249 47.9573 94.6588 47.1603 93.9304 46.5097C93.107 45.7889 92.1828 45.1986 91.1886 44.7588C90.0136 44.2347 88.8044 43.7946 87.5702 43.4411C87.097 43.3081 86.5905 43.157 86.0505 42.9876C85.4914 42.8213 84.9497 42.5987 84.4333 42.3232C83.9389 42.0651 83.4926 41.7206 83.1139 41.305C82.7054 40.8478 82.4825 40.248 82.4906 39.6283C82.4892 39.0761 82.6631 38.5387 82.9859 38.0967C83.2807 37.6913 83.6458 37.3452 84.0631 37.0757C84.4858 36.7947 84.9488 36.583 85.4353 36.4483C86.3831 36.1892 87.3787 36.1757 88.3329 36.4084C88.7825 36.5118 89.2167 36.6757 89.6244 36.896C90.0284 37.1166 90.4042 37.3878 90.7432 37.7032C91.1122 38.042 91.4572 38.4069 91.776 38.7954C91.9513 39.015 92.1126 39.1406 92.2239 39.1406C92.3307 39.1071 92.4311 39.0559 92.5218 38.9893C92.7613 38.8211 93.0228 38.6158 93.2956 38.3819L94.178 37.5976C94.4007 37.398 94.601 37.2241 94.782 37.0642C94.8489 37.0131 94.9129 36.9588 94.9769 36.9046C95.1132 36.7935 95.1717 36.6993 95.1717 36.6593C95.1512 36.5225 95.0877 36.3962 94.9907 36.3001C94.8877 36.1716 94.7763 36.0463 94.665 35.9207C94.2042 35.3747 93.7146 34.8549 93.1981 34.3636C92.6521 33.8464 92.0455 33.4009 91.3918 33.0374C90.7335 32.6891 90.035 32.4274 89.3125 32.259C88.4561 32.0743 87.5825 31.9854 86.7073 31.9937C85.4327 31.9828 84.164 32.1752 82.9469 32.5639C81.9125 32.8944 80.9476 33.4206 80.1024 34.1155C79.3394 34.7583 78.7228 35.5641 78.296 36.4769C77.8678 37.4287 77.6508 38.4662 77.6613 39.5141C77.652 40.4562 77.8007 41.3928 78.1012 42.2832C78.41 43.1323 78.8834 43.9083 79.4929 44.5649C80.2187 45.3371 81.0654 45.9801 81.9979 46.4671C83.205 47.0985 84.4775 47.5893 85.7917 47.9299C86.4597 48.1298 87.0832 48.3037 87.676 48.469C88.2658 48.6329 88.8375 48.8585 89.3822 49.142C89.8987 49.4116 90.3495 49.7967 90.7016 50.2687C91.072 50.8135 91.2588 51.4672 91.2331 52.131C91.2564 52.8466 91.0159 53.545 90.5596 54.0872C90.1514 54.5575 89.6503 54.9336 89.0899 55.191C88.5375 55.4532 87.952 55.6347 87.3504 55.7299C86.8367 55.8172 86.3177 55.8638 85.7971 55.8698C85.3896 55.8593 84.9842 55.8017 84.5891 55.6987C84.0614 55.5688 83.5476 55.3854 83.0556 55.1511C82.5075 54.8861 81.9877 54.563 81.5052 54.1871C80.9923 53.7951 80.552 53.3121 80.2054 52.7612C80.0719 52.5992 79.9287 52.4457 79.7767 52.302C79.7429 52.269 79.6982 52.2497 79.6515 52.2478C79.5704 52.2618 79.4933 52.2939 79.426 52.342L76.9961 54.2499C76.905 54.3246 76.8244 54.4119 76.7568 54.5095C76.7292 54.548 76.7171 54.5961 76.7233 54.6434C76.7449 54.8851 76.8275 55.1171 76.9626 55.3164C77.4122 56.15 77.9967 56.8994 78.6911 57.5324C79.3725 58.1481 80.1328 58.6653 80.9512 59.0695C81.7738 59.4753 82.6424 59.7751 83.5371 59.9623C85.7788 60.4443 88.1024 60.3463 90.2979 59.6771C91.4474 59.3373 92.5246 58.7802 93.4738 58.0344C94.3429 57.3492 95.0499 56.4719 95.5419 55.4677C96.0491 54.3958 96.3027 53.2165 96.2822 52.0253C96.3069 50.9336 96.0959 49.8498 95.6644 48.8513Z" fill="#263238"/>
<path d="M96.0018 35.4425C96.0018 35.4425 95.9823 35.4225 95.9768 35.4082V36.2808C95.9573 36.4435 95.9937 36.6077 96.0798 36.7457C96.1914 36.8282 96.3265 36.8703 96.4638 36.8656C96.4771 36.798 96.4835 36.7292 96.4833 36.6603C96.4683 36.2087 96.2977 35.7772 96.0018 35.4425Z" fill="#263238"/>
<path d="M108.881 32.6523C108.756 32.5614 108.604 32.519 108.452 32.5326H104.658V31.8681C104.658 30.9213 104.658 29.9773 104.658 29.0388C104.658 28.1006 104.658 27.168 104.658 26.224C104.674 25.9883 104.632 25.752 104.536 25.5368C104.431 25.5018 104.321 25.4863 104.21 25.4911C103.964 25.5023 103.718 25.5377 103.478 25.5967C103.147 25.6766 102.802 25.7763 102.446 25.8819C102.089 25.9873 101.725 26.1215 101.379 26.2469L100.483 26.5835C100.256 26.6458 100.043 26.7543 99.8572 26.903C99.8377 26.9227 99.7929 26.9627 99.7929 27.1226C99.7929 27.921 99.7929 28.711 99.7929 29.5039C99.7929 30.2966 99.7791 31.0752 99.7791 31.8681V32.5326H96.5866C96.2219 32.5326 96.0856 32.6123 96.0465 32.6523C96.0075 32.6922 95.963 32.7921 95.963 33.0572V36.2799C95.9438 36.4424 95.9802 36.6068 96.066 36.7448C96.1776 36.8271 96.3128 36.8692 96.4503 36.8645C96.4957 36.8687 96.5411 36.8687 96.5866 36.8645H99.7625V52.7296C99.7437 53.7525 99.9481 54.7669 100.361 55.6985C100.74 56.5366 101.292 57.2808 101.978 57.88C102.699 58.4943 103.527 58.9618 104.419 59.2577C105.409 59.5851 106.441 59.7563 107.481 59.7651C107.557 59.7756 107.635 59.7692 107.709 59.7459C107.783 59.7228 107.851 59.6838 107.91 59.6312C107.959 59.571 107.996 59.5011 108.018 59.4254C108.04 59.3498 108.047 59.2703 108.038 59.192V56.0549C108.044 55.9129 108.001 55.7732 107.915 55.6614C107.89 55.6291 107.856 55.6043 107.819 55.5893C107.781 55.5743 107.741 55.5696 107.701 55.5758C106.66 55.5758 105.875 55.2763 105.368 54.6975C104.862 54.1184 104.633 53.2858 104.633 52.1308V49.1847C104.634 49.1131 104.641 49.0415 104.653 48.9708V44.7243C104.653 44.1995 104.653 43.7147 104.653 43.267C104.653 42.8193 104.653 42.3287 104.653 41.8039V36.873H108.46C108.611 36.8892 108.762 36.8464 108.884 36.7534C108.903 36.7334 109.001 36.6135 109.001 36.1829V33.1257C109.018 32.9582 108.975 32.79 108.881 32.6523Z" fill="#263238"/>
<path d="M95.0018 36.3013C94.8988 36.1729 94.7875 36.0475 94.6761 35.9219V36.2813C94.6716 36.5475 94.7111 36.8128 94.7929 37.0654C94.8598 37.0143 94.9238 36.9601 94.9878 36.9058C95.1241 36.7947 95.1826 36.7005 95.1826 36.6605C95.1624 36.5238 95.0986 36.3974 95.0018 36.3013Z" fill="#263238"/>
<path d="M149.685 39.1699C149.299 37.8229 148.664 36.5644 147.815 35.4622C146.989 34.4136 145.943 33.5702 144.753 32.9955C143.413 32.371 141.953 32.0639 140.481 32.0972C139.544 32.0929 138.61 32.1999 137.697 32.4164C136.856 32.6087 136.043 32.9096 135.276 33.3119C134.574 33.6763 133.928 34.1421 133.355 34.6952C132.828 35.2039 132.388 35.801 132.055 36.4604L131.521 37.5386L130.925 36.5061C130.534 35.8276 130.067 35.1979 129.534 34.6296C129.044 34.0986 128.481 33.6433 127.864 33.2779C127.212 32.8982 126.509 32.6177 125.779 32.445C124.914 32.2456 124.029 32.1497 123.143 32.1597C122.239 32.1436 121.338 32.2463 120.46 32.465C119.772 32.6398 119.11 32.9084 118.492 33.2636C117.968 33.5743 117.49 33.9582 117.069 34.4043C116.662 34.8363 116.29 35.3016 115.956 35.796L114.976 37.2876L114.534 33.3347C114.477 33.1054 114.376 32.8901 114.236 32.7017C114.203 32.656 114.125 32.542 113.821 32.542H111.595C111.213 32.5287 110.833 32.6018 110.481 32.7559C110.412 32.7959 110.287 32.8556 110.287 33.2065V59.0959C110.269 59.285 110.322 59.4739 110.437 59.6235C110.615 59.7496 110.831 59.8062 111.046 59.7832H114.665C114.755 59.7884 114.846 59.7744 114.931 59.742C115.017 59.7096 115.095 59.6594 115.16 59.595C115.223 59.5338 115.271 59.4589 115.301 59.3759C115.331 59.2931 115.343 59.2041 115.335 59.1159V43.402C115.339 42.4502 115.549 41.5112 115.951 40.6527C116.32 39.8862 116.833 39.201 117.459 38.6365C118.055 38.0948 118.741 37.6687 119.486 37.3787C120.204 37.0911 120.969 36.9422 121.74 36.9396C122.702 36.9193 123.655 37.1292 124.524 37.5526C125.281 37.9292 125.947 38.475 126.472 39.1499C126.981 39.8038 127.361 40.5525 127.594 41.3542C127.825 42.1531 127.942 42.9822 127.939 43.8155V58.8963C127.939 59.4953 128.061 59.6435 128.07 59.6492C128.078 59.6549 128.206 59.7632 128.738 59.7632H132.103C132.523 59.7632 132.877 59.6892 132.877 58.8109V43.8269C132.868 42.8689 133.028 41.9173 133.35 41.0178C133.641 40.2085 134.085 39.4653 134.655 38.8304C135.215 38.2111 135.9 37.7244 136.662 37.4044C137.452 37.0752 138.298 36.9103 139.15 36.9196C140.11 36.8953 141.063 37.0982 141.934 37.5129C142.685 37.8869 143.349 38.4219 143.882 39.0814C144.4 39.736 144.785 40.489 145.018 41.2974C145.256 42.1115 145.376 42.9569 145.374 43.8069V58.922C145.374 59.5153 145.499 59.6606 145.505 59.6692C145.51 59.6778 145.636 59.7889 146.201 59.7889H149.541C149.649 59.8039 149.76 59.7927 149.864 59.7565C149.968 59.7204 150.062 59.6604 150.139 59.5807C150.29 59.3552 150.361 59.0833 150.34 58.8109V43.787C150.347 42.2233 150.126 40.6669 149.685 39.1699Z" fill="#263238"/>
<path d="M174.666 32.5597H170.541C170.394 32.5485 170.247 32.5832 170.12 32.6596C169.982 32.7804 169.878 32.937 169.82 33.113L162.747 52.8254L162.124 51.217C161.943 50.7633 161.709 50.1388 161.417 49.3459C161.124 48.5533 160.793 47.6749 160.434 46.691C160.075 45.707 159.694 44.6546 159.293 43.5538C158.892 42.4531 158.491 41.3178 158.096 40.2057C157.701 39.0935 157.317 38.0239 156.952 36.9774C156.588 35.9307 156.259 34.981 155.967 34.1483L155.577 33.1102C155.542 32.9531 155.453 32.8142 155.326 32.7188C155.2 32.6234 155.044 32.5782 154.887 32.5911H150.912C150.6 32.5911 150.517 32.6596 150.517 32.6653C150.517 32.671 150.484 32.6853 150.484 32.7595C150.481 32.8573 150.5 32.9543 150.536 33.0445L150.595 33.1787V33.404L160.456 58.0301L156.448 68.4993C156.439 68.5321 156.433 68.5654 156.429 68.5992C156.406 68.706 156.392 68.8149 156.39 68.9244C156.39 68.9444 156.487 68.9984 156.81 68.9984H160.943C161.09 69.0088 161.237 68.9741 161.364 68.8987C161.493 68.7769 161.589 68.6225 161.642 68.451L175.002 33.0588C175.002 33.0331 175.002 32.9991 175.022 32.9648C175.045 32.8578 175.06 32.749 175.066 32.6396C175.094 32.6139 174.991 32.5597 174.666 32.5597Z" fill="#263238"/>
<path d="M194.453 48.851C194.041 47.9549 193.45 47.1572 192.719 46.5096C191.895 45.7888 190.971 45.1986 189.977 44.7587C188.802 44.2337 187.593 43.7933 186.359 43.441C185.891 43.308 185.384 43.1567 184.839 42.9876C184.281 42.8191 183.739 42.5967 183.222 42.3231C182.728 42.065 182.281 41.7205 181.903 41.3049C181.499 40.8508 181.278 40.2568 181.285 39.6423C181.282 39.0915 181.453 38.5546 181.772 38.1109C182.063 37.7058 182.424 37.3587 182.838 37.087C183.26 36.8061 183.722 36.5943 184.207 36.4597C185.155 36.2006 186.15 36.1868 187.105 36.4197C187.557 36.5218 187.994 36.6857 188.405 36.9074C188.817 37.1232 189.202 37.3906 189.551 37.7032C189.921 38.0403 190.267 38.4054 190.584 38.7954C190.759 39.0149 190.923 39.1403 191.035 39.1403C191.141 39.1068 191.242 39.0559 191.333 38.9892C191.572 38.821 191.834 38.6157 192.106 38.3819C192.379 38.148 192.691 37.8628 192.989 37.5975C193.286 37.3323 193.559 37.0927 193.787 36.9046C193.924 36.7932 193.982 36.6992 193.982 36.6593C193.964 36.5227 193.903 36.3964 193.807 36.2998C193.249 35.6151 192.649 34.9685 192.009 34.3636C191.463 33.8457 190.857 33.4001 190.203 33.0373C189.545 32.6881 188.846 32.4264 188.123 32.2589C187.27 32.075 186.399 31.986 185.526 31.9936C184.249 31.9822 182.977 32.1747 181.758 32.5639C180.723 32.8934 179.758 33.4198 178.913 34.1154C178.13 34.7685 177.503 35.5961 177.08 36.5351C176.656 37.4741 176.448 38.4999 176.469 39.534C176.461 40.4761 176.611 41.4129 176.912 42.3031C177.221 43.152 177.694 43.9282 178.303 44.5846C179.03 45.3566 179.876 45.9994 180.808 46.4868C182.013 47.1198 183.284 47.6106 184.597 47.9499C185.265 48.1495 185.888 48.3236 186.478 48.4889C187.069 48.6519 187.642 48.8774 188.187 49.162C188.704 49.4315 189.155 49.8164 189.507 50.2884C189.879 50.8327 190.068 51.4867 190.044 52.1507C190.065 52.8674 189.821 53.5661 189.362 54.1071C188.955 54.5772 188.455 54.9536 187.895 55.2107C187.343 55.4734 186.757 55.6549 186.155 55.7498C185.644 55.8369 185.127 55.8835 184.608 55.8897C184.198 55.8797 183.791 55.8224 183.394 55.7184C182.867 55.5883 182.353 55.4049 181.861 55.171C181.312 54.9053 180.792 54.5822 180.307 54.207C179.796 53.8143 179.357 53.3313 179.01 52.7811C178.881 52.6155 178.738 52.4618 178.582 52.3219C178.549 52.2874 178.504 52.2682 178.457 52.2677C178.376 52.2815 178.299 52.3139 178.231 52.3617L175.801 54.2696C175.711 54.346 175.629 54.433 175.559 54.5292C175.537 54.5701 175.526 54.6165 175.529 54.6633C175.55 54.905 175.633 55.137 175.768 55.3363C176.218 56.1699 176.802 56.9191 177.496 57.5523C178.18 58.1675 178.942 58.6845 179.762 59.0894C180.585 59.4953 181.453 59.795 182.348 59.982C184.588 60.464 186.91 60.366 189.103 59.6968C190.254 59.3554 191.334 58.7985 192.287 58.0541C193.153 57.3689 193.857 56.4913 194.344 55.4874C194.853 54.4159 195.107 53.2364 195.085 52.0453C195.108 50.9457 194.892 49.8547 194.453 48.851Z" fill="#263238"/>
<path d="M219.128 39.2404C218.743 37.8965 218.115 36.6388 217.276 35.5328C216.47 34.4934 215.451 33.6484 214.29 33.0575C213.01 32.4354 211.606 32.1259 210.19 32.1534C209.349 32.1454 208.51 32.2239 207.685 32.3873C207.021 32.5208 206.376 32.7372 205.764 33.0318C205.236 33.2889 204.74 33.6127 204.289 33.9957C203.861 34.3618 203.471 34.7727 203.126 35.2221L201.971 36.7534V24.6928C201.971 24.6074 201.952 24.5231 201.916 24.4461C201.88 24.369 201.827 24.3014 201.762 24.2479C201.699 24.1808 201.623 24.1273 201.54 24.0906C201.456 24.0538 201.366 24.0345 201.275 24.034H197.656C197.557 24.0226 197.456 24.0319 197.36 24.0619C197.265 24.0918 197.176 24.1416 197.1 24.2079C197.038 24.2748 196.99 24.3545 196.96 24.4413C196.93 24.5284 196.917 24.6207 196.924 24.7127V59.0867C196.904 59.2721 196.955 59.4583 197.066 59.6058C197.243 59.731 197.457 59.7876 197.67 59.7654H201.289C201.387 59.7683 201.483 59.7426 201.567 59.6912C201.659 59.6187 201.727 59.5192 201.762 59.4062C201.839 59.2254 201.885 59.0325 201.898 58.8357C201.928 58.5752 201.943 58.3136 201.946 58.0514V43.387C201.942 42.4344 202.153 41.4938 202.561 40.6378C202.926 39.8668 203.437 39.1776 204.064 38.61C204.663 38.0711 205.351 37.6453 206.096 37.3525C206.813 37.0694 207.574 36.9226 208.342 36.919C209.266 36.9083 210.182 37.1112 211.02 37.5121C211.79 37.8853 212.481 38.4116 213.051 39.0608C213.614 39.7055 214.054 40.4534 214.346 41.2651C214.637 42.0821 214.786 42.9452 214.785 43.8147V58.9071C214.785 59.5002 214.916 59.6455 214.916 59.6541C214.916 59.6627 215.053 59.774 215.612 59.774H218.952C219.061 59.7883 219.172 59.7778 219.276 59.7433C219.38 59.7088 219.476 59.651 219.556 59.5744C219.702 59.3508 219.77 59.0839 219.751 58.8158V43.8147C219.764 42.2669 219.554 40.7254 219.128 39.2404Z" fill="#263238"/>
<path d="M248.364 42.4285C248.043 41.2423 247.577 40.1037 246.972 39.0403C246.375 37.9988 245.65 37.0403 244.815 36.1884C243.977 35.3427 243.042 34.6052 242.031 33.9924C241.001 33.3755 239.9 32.8964 238.753 32.5664C236.364 31.901 233.845 31.901 231.457 32.5664C230.309 32.8997 229.207 33.3788 228.175 33.9924C227.161 34.5988 226.225 35.3346 225.392 36.1827C224.556 37.0332 223.831 37.9919 223.237 39.0346C221.989 41.2052 221.339 43.6822 221.356 46.2015C221.336 48.7082 221.983 51.1733 223.229 53.331C223.83 54.3687 224.554 55.3268 225.384 56.1829C226.215 57.0349 227.151 57.7731 228.167 58.379C229.197 58.9961 230.3 59.4754 231.448 59.8049C233.836 60.4751 236.356 60.4751 238.744 59.8049C239.893 59.4752 240.994 58.9958 242.022 58.379C243.038 57.7697 243.973 57.0299 244.805 56.1772C245.64 55.3227 246.366 54.3647 246.968 53.3253C247.895 51.6964 248.495 49.8944 248.735 48.0247C248.973 46.1551 248.847 44.2555 248.359 42.4368L248.364 42.4285ZM243.166 49.8432C242.755 50.9566 242.141 51.9798 241.356 52.8576C240.575 53.7195 239.638 54.4137 238.594 54.8997C237.498 55.4069 236.308 55.6655 235.106 55.6584C233.883 55.667 232.672 55.4084 231.554 54.8997C230.498 54.4137 229.544 53.7221 228.746 52.8633C227.95 51.9876 227.325 50.9647 226.903 49.8489C226.028 47.503 226.028 44.9083 226.903 42.5624C227.321 41.4343 227.945 40.3978 228.74 39.508C229.532 38.6231 230.485 37.906 231.546 37.3976C232.66 36.8633 233.876 36.5907 235.106 36.599C236.315 36.5928 237.51 36.8657 238.601 37.3976C239.648 37.9106 240.583 38.6273 241.36 39.508C242.141 40.4035 242.752 41.439 243.166 42.5624C244.025 44.91 244.025 47.4959 243.166 49.8432Z" fill="#263238"/>
<path d="M277.871 42.3639C277.276 40.0227 276.096 37.8805 274.447 36.1467C273.638 35.3021 272.73 34.5663 271.74 33.9564C270.726 33.3442 269.642 32.8651 268.512 32.5304C267.332 32.1952 266.116 32.0273 264.893 32.0313C263.989 32.018 263.09 32.135 262.217 32.3793C261.456 32.5934 260.725 32.906 260.04 33.309C259.393 33.6961 258.786 34.151 258.23 34.6665C257.671 35.1865 257.14 35.7399 256.645 36.3234L255.748 37.3759L255.054 33.2577C255.011 33.0107 254.916 32.7762 254.775 32.5704C254.702 32.4705 254.464 32.459 254.366 32.459H252.14C251.966 32.4671 251.795 32.4852 251.623 32.5133C251.49 32.528 251.362 32.5647 251.24 32.6218L251.157 32.6532C251.055 32.676 250.964 32.7321 250.898 32.8128C250.843 32.9122 250.819 33.0269 250.831 33.1408V67.8398C250.824 67.9214 250.838 68.0032 250.872 68.0777C250.905 68.1522 250.955 68.2166 251.019 68.2647C251.167 68.3905 251.35 68.4655 251.54 68.4786H255.185C255.273 68.4893 255.365 68.4805 255.451 68.4529C255.537 68.4255 255.618 68.3798 255.684 68.3189C255.801 68.1876 255.86 68.0156 255.853 67.8398V55.2087L256.966 56.4264C257.457 56.9622 257.982 57.4644 258.539 57.9295C259.089 58.3955 259.683 58.8016 260.316 59.1416C260.977 59.4922 261.674 59.7622 262.395 59.9457C263.199 60.1531 264.027 60.2537 264.855 60.2452C266.08 60.2483 267.296 60.0784 268.474 59.7404C269.611 59.4123 270.703 58.9327 271.718 58.3144C272.711 57.7063 273.619 56.9679 274.426 56.1184C275.232 55.2589 275.932 54.3011 276.51 53.2665C277.102 52.2123 277.561 51.084 277.871 49.91C278.503 47.4399 278.503 44.8451 277.871 42.3751V42.3639ZM272.713 49.7986C272.287 50.9153 271.666 51.9435 270.883 52.833C270.096 53.7087 269.152 54.4179 268.1 54.9206C267.003 55.443 265.809 55.7087 264.601 55.6992C263.368 55.7068 262.148 55.4411 261.027 54.9206C259.94 54.4236 258.958 53.7189 258.13 52.8444C257.3 51.9678 256.638 50.9382 256.181 49.8101C255.698 48.6465 255.453 47.3949 255.461 46.1312V45.9713C255.468 44.7293 255.729 43.5029 256.224 42.3694C256.707 41.2715 257.38 40.2706 258.206 39.4149C259.036 38.5749 260.009 37.8981 261.077 37.4185C262.716 36.6662 264.548 36.4619 266.309 36.8344C268.069 37.207 269.67 38.1379 270.886 39.4948C272.504 41.3121 273.398 43.6854 273.391 46.1455C273.391 47.3959 273.163 48.6356 272.713 49.7986Z" fill="#263238"/>
</svg>
